<svg xmlns="http://www.w3.org/2000/svg" viewBox="0 0 407.83 253.08"><defs><style>.cls-1{fill:#7a63ff;}.cls-2{fill:#fff;}</style></defs><g id="Text"><circle class="cls-1" cx="181.91" cy="15.04" r="3"/><circle class="cls-1" cx="195.91" cy="15.04" r="3"/><circle class="cls-1" cx="209.91" cy="15.04" r="3"/><circle class="cls-1" cx="154.91" cy="29.04" r="1"/><circle class="cls-1" cx="168.91" cy="29.04" r="4"/><circle class="cls-1" cx="181.91" cy="29.04" r="4"/><circle class="cls-1" cx="195.91" cy="29.04" r="4"/><circle class="cls-1" cx="209.91" cy="29.04" r="3"/><circle class="cls-1" cx="222.91" cy="29.04" r="2"/><circle class="cls-1" cx="235.91" cy="29.04" r="2"/><circle class="cls-1" cx="126.91" cy="42.92" r="1"/><circle class="cls-1" cx="140.91" cy="42.92" r="2"/><circle class="cls-1" cx="154.91" cy="42.92" r="2"/><circle class="cls-1" cx="168.91" cy="42.92" r="4"/><circle class="cls-1" cx="181.91" cy="42.92" r="4"/><circle class="cls-1" cx="195.91" cy="42.92" r="4"/><circle class="cls-1" cx="209.41" cy="42.92" r="4"/><circle class="cls-1" cx="222.91" cy="42.92" r="4"/><circle class="cls-1" cx="236.91" cy="42.92" r="2"/><circle class="cls-1" cx="250.91" cy="42.92" r="2"/><circle class="cls-1" cx="264.91" cy="42.92" r="2"/><circle class="cls-1" cx="127.41" cy="56.64" r="1"/><circle class="cls-1" cx="140.41" cy="56.64" r="2"/><circle class="cls-1" cx="154.41" cy="56.64" r="3"/><circle class="cls-1" cx="168.41" cy="56.64" r="5"/><circle class="cls-1" cx="181.41" cy="56.64" r="5"/><circle class="cls-1" cx="195.41" cy="56.64" r="5"/><circle class="cls-1" cx="209.41" cy="56.64" r="5"/><circle class="cls-1" cx="222.41" cy="56.64" r="5"/><circle class="cls-1" cx="236.41" cy="56.64" r="3"/><circle class="cls-1" cx="250.41" cy="56.64" r="3"/><circle class="cls-1" cx="99.41" cy="70.41" r="2"/><circle class="cls-1" cx="112.41" cy="70.41" r="2"/><circle class="cls-1" cx="125.41" cy="70.41" r="3"/><circle class="cls-1" cx="140.41" cy="70.41" r="4"/><circle class="cls-1" cx="153.41" cy="70.41" r="4"/><circle class="cls-1" cx="168.41" cy="70.41" r="5"/><circle class="cls-1" cx="181.41" cy="70.41" r="5"/><circle class="cls-1" cx="195.41" cy="70.41" r="5"/><circle class="cls-1" cx="209.41" cy="70.41" r="5"/><circle class="cls-1" cx="222.41" cy="70.41" r="5"/><circle class="cls-1" cx="236.41" cy="70.41" r="5"/><circle class="cls-1" cx="250.41" cy="70.41" r="5"/><circle class="cls-1" cx="264.41" cy="70.41" r="4"/><circle class="cls-1" cx="277.41" cy="70.41" r="3"/><circle class="cls-1" cx="291.41" cy="70.41" r="2"/><circle class="cls-1" cx="99.41" cy="84.33" r="2"/><circle class="cls-1" cx="112.41" cy="84.33" r="2"/><circle class="cls-1" cx="126.41" cy="84.33" r="3"/><circle class="cls-1" cx="140.41" cy="84.33" r="5"/><circle class="cls-1" cx="154.41" cy="84.33" r="5"/><circle class="cls-1" cx="168.41" cy="84.33" r="5"/><circle class="cls-1" cx="182.41" cy="84.33" r="5"/><circle class="cls-1" cx="195.41" cy="84.33" r="5"/><circle class="cls-1" cx="209.41" cy="84.33" r="5"/><circle class="cls-1" cx="222.41" cy="84.33" r="5"/><circle class="cls-1" cx="236.41" cy="84.33" r="5"/><circle class="cls-1" cx="250.41" cy="84.33" r="5"/><circle class="cls-1" cx="264.41" cy="84.33" r="5"/><circle class="cls-1" cx="278.41" cy="84.33" r="5"/><circle class="cls-1" cx="291.41" cy="84.33" r="3"/><circle class="cls-1" cx="72.41" cy="97.68" r="2"/><circle class="cls-1" cx="72.41" cy="112.54" r="2"/><circle class="cls-1" cx="71.41" cy="126.54" r="2"/><circle class="cls-1" cx="86.41" cy="97.68" r="2"/><circle class="cls-1" cx="85.41" cy="110.54" r="2"/><circle class="cls-1" cx="85.41" cy="124.54" r="2"/><circle class="cls-1" cx="99.41" cy="97.68" r="2"/><circle class="cls-1" cx="113.41" cy="97.68" r="4"/><circle class="cls-1" cx="127.41" cy="97.68" r="3"/><circle class="cls-1" cx="140.41" cy="97.68" r="4"/><circle class="cls-1" cx="113.41" cy="110.54" r="4"/><circle class="cls-1" cx="99.41" cy="123.54" r="4"/><circle class="cls-1" cx="153.41" cy="97.68" r="4"/><circle class="cls-1" cx="168.41" cy="97.68" r="5"/><circle class="cls-1" cx="169.41" cy="111.54" r="5"/><circle class="cls-1" cx="169.41" cy="125.54" r="5"/><circle class="cls-1" cx="154.41" cy="138.54" r="5"/><circle class="cls-1" cx="169.41" cy="138.54" r="5"/><circle class="cls-1" cx="183.41" cy="97.68" r="5"/><circle class="cls-1" cx="195.41" cy="97.68" r="5"/><circle class="cls-1" cx="196.41" cy="111.54" r="5"/><circle class="cls-1" cx="196.41" cy="123.54" r="5"/><circle class="cls-1" cx="195.41" cy="138.54" r="5"/><circle class="cls-1" cx="209.41" cy="97.68" r="5"/><circle class="cls-1" cx="209.41" cy="110.54" r="5"/><circle class="cls-1" cx="210.41" cy="123.54" r="5"/><circle class="cls-1" cx="222.41" cy="97.68" r="6"/><circle class="cls-1" cx="224.41" cy="122.54" r="6"/><circle class="cls-1" cx="223.41" cy="137.54" r="6"/><circle class="cls-1" cx="236.41" cy="97.68" r="5"/><circle class="cls-1" cx="238.41" cy="108.54" r="5"/><circle class="cls-1" cx="238.41" cy="124.54" r="5"/><circle class="cls-1" cx="248.41" cy="97.68" r="5"/><circle class="cls-1" cx="262.41" cy="97.68" r="5"/><circle class="cls-1" cx="277.41" cy="97.68" r="4"/><circle class="cls-1" cx="291.41" cy="97.68" r="5"/><circle class="cls-1" cx="305.41" cy="84.33" r="4"/><circle class="cls-1" cx="317.41" cy="84.33" r="4"/><circle class="cls-1" cx="333.41" cy="84.33" r="2"/><circle class="cls-1" cx="347.41" cy="84.33" r="2"/><circle class="cls-1" cx="360.41" cy="97.68" r="1"/><circle class="cls-1" cx="333.41" cy="97.68" r="2"/><circle class="cls-1" cx="321.41" cy="97.68" r="3"/><circle class="cls-1" cx="334.41" cy="111.54" r="3"/><circle class="cls-1" cx="320.41" cy="138.54" r="3"/><circle class="cls-1" cx="333.41" cy="124.54" r="3"/><circle class="cls-1" cx="305.41" cy="97.68" r="3"/><circle class="cls-1" cx="226.02" cy="234.93" r="3"/><circle class="cls-1" cx="212.02" cy="235.18" r="3"/><circle class="cls-1" cx="198.02" cy="235.44" r="3"/><circle class="cls-1" cx="252.76" cy="220.45" r="1"/><circle class="cls-1" cx="238.76" cy="220.7" r="4"/><circle class="cls-1" cx="225.77" cy="220.93" r="4"/><circle class="cls-1" cx="211.77" cy="221.19" r="4"/><circle class="cls-1" cx="197.77" cy="221.44" r="3"/><circle class="cls-1" cx="184.77" cy="221.67" r="2"/><circle class="cls-1" cx="180.41" cy="235.54" r="2"/><circle class="cls-1" cx="161.41" cy="235.54" r="2"/><circle class="cls-1" cx="140.41" cy="222.54" r="2"/><circle class="cls-1" cx="127.41" cy="222.54" r="2"/><circle class="cls-1" cx="280.51" cy="206.06" r="1"/><circle class="cls-1" cx="266.51" cy="206.32" r="2"/><circle class="cls-1" cx="252.51" cy="206.57" r="2"/><circle class="cls-1" cx="238.51" cy="206.82" r="4"/><circle class="cls-1" cx="225.52" cy="207.06" r="4"/><circle class="cls-1" cx="211.52" cy="207.31" r="4"/><circle class="cls-1" cx="198.02" cy="207.55" r="4"/><circle class="cls-1" cx="184.52" cy="207.79" r="4"/><circle class="cls-1" cx="168.41" cy="208.54" r="2"/><circle class="cls-1" cx="156.53" cy="208.3" r="2"/><circle class="cls-1" cx="142.53" cy="208.55" r="2"/><circle class="cls-1" cx="279.76" cy="192.35" r="1"/><circle class="cls-1" cx="266.76" cy="192.59" r="2"/><circle class="cls-1" cx="252.76" cy="192.84" r="3"/><circle class="cls-1" cx="238.77" cy="193.09" r="5"/><circle class="cls-1" cx="225.77" cy="193.33" r="5"/><circle class="cls-1" cx="211.77" cy="193.58" r="5"/><circle class="cls-1" cx="197.77" cy="193.83" r="5"/><circle class="cls-1" cx="184.77" cy="194.07" r="5"/><circle class="cls-1" cx="168.41" cy="193.54" r="3"/><circle class="cls-1" cx="154.41" cy="193.54" r="3"/><circle class="cls-1" cx="127.41" cy="208.54" r="3"/><circle class="cls-1" cx="155.41" cy="222.54" r="3"/><circle class="cls-1" cx="168.41" cy="222.54" r="3"/><circle class="cls-1" cx="140.41" cy="193.54" r="3"/><circle class="cls-1" cx="126.41" cy="192.54" r="3"/><circle class="cls-1" cx="112.41" cy="193.54" r="3"/><circle class="cls-1" cx="99.41" cy="193.54" r="3"/><circle class="cls-1" cx="307.51" cy="178.09" r="2"/><circle class="cls-1" cx="294.51" cy="178.32" r="2"/><circle class="cls-1" cx="281.51" cy="178.55" r="3"/><circle class="cls-1" cx="266.51" cy="178.82" r="4"/><circle class="cls-1" cx="253.51" cy="179.06" r="4"/><circle class="cls-1" cx="238.52" cy="179.33" r="5"/><circle class="cls-1" cx="225.52" cy="179.56" r="5"/><circle class="cls-1" cx="211.52" cy="179.82" r="5"/><circle class="cls-1" cx="197.52" cy="180.07" r="5"/><circle class="cls-1" cx="184.53" cy="180.3" r="5"/><circle class="cls-1" cx="170.53" cy="180.56" r="5"/><circle class="cls-1" cx="156.53" cy="180.81" r="5"/><circle class="cls-1" cx="142.53" cy="181.06" r="4"/><circle class="cls-1" cx="129.53" cy="181.3" r="3"/><circle class="cls-1" cx="115.54" cy="181.55" r="2"/><circle class="cls-1" cx="99.41" cy="180.54" r="2"/><circle class="cls-1" cx="86.41" cy="180.54" r="2"/><circle class="cls-1" cx="72.41" cy="180.54" r="2"/><circle class="cls-1" cx="307.25" cy="164.16" r="2"/><circle class="cls-1" cx="294.26" cy="164.4" r="2"/><circle class="cls-1" cx="280.26" cy="164.65" r="3"/><circle class="cls-1" cx="266.26" cy="164.9" r="5"/><circle class="cls-1" cx="252.26" cy="165.16" r="5"/><circle class="cls-1" cx="238.27" cy="165.41" r="5"/><circle class="cls-1" cx="224.27" cy="165.66" r="5"/><circle class="cls-1" cx="211.27" cy="165.9" r="5"/><circle class="cls-1" cx="197.27" cy="166.15" r="5"/><circle class="cls-1" cx="184.27" cy="166.38" r="5"/><circle class="cls-1" cx="170.28" cy="166.64" r="5"/><circle class="cls-1" cx="156.28" cy="166.89" r="5"/><circle class="cls-1" cx="142.28" cy="167.14" r="5"/><circle class="cls-1" cx="128.28" cy="167.39" r="5"/><circle class="cls-1" cx="115.29" cy="167.63" r="3"/><circle class="cls-1" cx="334.01" cy="150.33" r="2"/><circle class="cls-1" cx="347.41" cy="151.54" r="2"/><circle class="cls-1" cx="334.41" cy="138.54" r="2"/><circle class="cls-1" cx="361.41" cy="125.54" r="2"/><circle class="cls-1" cx="361.41" cy="138.54" r="2"/><circle class="cls-1" cx="320.01" cy="150.58" r="2"/><circle class="cls-1" cx="307.01" cy="150.81" r="2"/><circle class="cls-1" cx="305.41" cy="123.54" r="2"/><circle class="cls-1" cx="293.02" cy="151.07" r="4"/><circle class="cls-1" cx="293.41" cy="138.54" r="4"/><circle class="cls-1" cx="279.02" cy="151.32" r="3"/><circle class="cls-1" cx="279.41" cy="110.54" r="3"/><circle class="cls-1" cx="278.41" cy="123.54" r="3"/><circle class="cls-1" cx="305.41" cy="111.54" r="3"/><circle class="cls-1" cx="266.02" cy="151.55" r="4"/><circle class="cls-1" cx="266.41" cy="137.54" r="4"/><circle class="cls-1" cx="266.41" cy="110.54" r="4"/><circle class="cls-1" cx="253.02" cy="151.79" r="4"/><circle class="cls-1" cx="251.41" cy="124.54" r="4"/><circle class="cls-1" cx="250.41" cy="111.54" r="4"/><circle class="cls-1" cx="251.41" cy="138.54" r="4"/><circle class="cls-1" cx="238.03" cy="152.06" r="5"/><circle class="cls-1" cx="238.41" cy="139.54" r="5"/><circle class="cls-1" cx="223.03" cy="152.33" r="5"/><circle class="cls-1" cx="211.03" cy="152.54" r="5"/><circle class="cls-1" cx="197.03" cy="152.8" r="5"/><circle class="cls-1" cx="184.03" cy="153.03" r="6"/><circle class="cls-1" cx="170.04" cy="153.28" r="5"/><circle class="cls-1" cx="158.04" cy="153.5" r="5"/><circle class="cls-1" cx="144.04" cy="153.75" r="5"/><circle class="cls-1" cx="129.04" cy="154.02" r="4"/><circle class="cls-1" cx="115.05" cy="154.28" r="5"/><circle class="cls-1" cx="101.29" cy="167.88" r="4"/><circle class="cls-1" cx="89.29" cy="168.1" r="4"/><circle class="cls-1" cx="73.29" cy="168.38" r="2"/><circle class="cls-1" cx="59.3" cy="168.64" r="2"/><circle class="cls-1" cx="46.06" cy="155.52" r="1"/><circle class="cls-1" cx="45.41" cy="152.54" r="1"/><circle class="cls-1" cx="73.05" cy="155.03" r="2"/><circle class="cls-1" cx="57.41" cy="138.54" r="2"/><circle class="cls-1" cx="73.41" cy="138.54" r="2"/><circle class="cls-1" cx="59.41" cy="153.54" r="2"/><circle class="cls-1" cx="85.05" cy="154.82" r="3"/><circle class="cls-1" cx="101.05" cy="154.53" r="3"/><circle class="cls-1" cx="99.41" cy="139.54" r="3"/><circle class="cls-1" cx="114.41" cy="139.54" r="3"/><circle class="cls-1" cx="127.41" cy="139.54" r="3"/><circle class="cls-1" cx="126.41" cy="123.54" r="3"/><circle class="cls-1" cx="142.41" cy="125.54" r="3"/><circle class="cls-1" cx="140.41" cy="110.54" r="3"/><circle class="cls-1" cx="154.41" cy="111.54" r="3"/><path class="cls-2" d="M39.6,140.28H30.38v15.87H13.48V96.4H40.8a34.11,34.11,0,0,1,14.08,2.69,20.87,20.87,0,0,1,9.22,7.68,21.08,21.08,0,0,1,3.24,11.74,20.83,20.83,0,0,1-3,11.31,20.48,20.48,0,0,1-8.66,7.55l12.89,18.78H50.44Zm8-28.26q-2.66-2.3-7.86-2.3H30.38v17.5h9.39q5.2,0,7.86-2.27a8,8,0,0,0,2.64-6.44A8.16,8.16,0,0,0,47.63,112Z"/><path class="cls-2" d="M121.3,137.12H87.67a9.39,9.39,0,0,0,4,5.5A13.29,13.29,0,0,0,99,144.54a15.88,15.88,0,0,0,5.76-.94,16.94,16.94,0,0,0,4.91-3.07l8.53,8.88q-6.73,7.51-19.71,7.51a31.48,31.48,0,0,1-14.26-3.07,23.37,23.37,0,0,1-.51-41.66,29.14,29.14,0,0,1,25.61-.21,21.89,21.89,0,0,1,8.92,8.28,24.29,24.29,0,0,1,3.28,12.85C121.55,133.22,121.47,134.56,121.3,137.12ZM90.61,122.78a9.57,9.57,0,0,0-3.2,5.8h19a9.62,9.62,0,0,0-3.2-5.8,10.27,10.27,0,0,0-12.55,0Z"/><path class="cls-2" d="M174.67,109.89l-19.12,46.26H138.82l-19-46.26h16.65l11.1,28.25,11.69-28.25Z"/><path class="cls-2" d="M178.67,102.29a8.28,8.28,0,0,1,0-12.29,10.27,10.27,0,0,1,7.17-2.48A10.64,10.64,0,0,1,193,89.87a7.59,7.59,0,0,1,2.73,6,8.28,8.28,0,0,1-2.73,6.36,10.15,10.15,0,0,1-7.17,2.52A10.27,10.27,0,0,1,178.67,102.29Zm-.94,7.6H194v46.26H177.73Z"/><path class="cls-2" d="M249.94,137.12H216.31a9.39,9.39,0,0,0,4,5.5,13.29,13.29,0,0,0,7.39,1.92,15.88,15.88,0,0,0,5.76-.94,16.94,16.94,0,0,0,4.91-3.07l8.53,8.88q-6.74,7.51-19.71,7.51a31.48,31.48,0,0,1-14.26-3.07,23.37,23.37,0,0,1-.51-41.66A29.14,29.14,0,0,1,238,112a21.89,21.89,0,0,1,8.92,8.28,24.29,24.29,0,0,1,3.28,12.85C250.19,133.22,250.11,134.56,249.94,137.12Zm-30.69-14.34a9.57,9.57,0,0,0-3.2,5.8H235a9.67,9.67,0,0,0-3.2-5.8,10.27,10.27,0,0,0-12.55,0Z"/><path class="cls-2" d="M331.48,109.89,315,156.15h-15.7L290.6,131l-9.05,25.18h-15.7l-16.48-46.26h15.37l9.47,28,9.82-28h13.82l9.56,28.25,9.82-28.25Z"/><path class="cls-2" d="M335.56,96.4h16.9v59.75h-16.9Z"/><path class="cls-2" d="M395.39,154.27a16.36,16.36,0,0,1-5,2,28.12,28.12,0,0,1-6.28.68q-9,0-13.91-4.44t-4.87-13.23V123.72H358.6V111.6h6.74v-12h16.22v12h10.59v12.12H381.56v15.36a5.45,5.45,0,0,0,1.32,3.88,4.65,4.65,0,0,0,3.55,1.41,8.58,8.58,0,0,0,4.95-1.45Z"/></g></svg>